<svg xmlns="http://www.w3.org/2000/svg" viewBox="0 96 1200 288" width="1200" height="288" role="img" aria-label="AI-DLC Studio — Action Center over five phase lanes">
  <title>AI-DLC Studio</title>
  <defs>
    <linearGradient id="bg" x1="0" y1="0" x2="1" y2="1">
      <stop offset="0" stop-color="#12141a"/><stop offset="1" stop-color="#181b22"/>
    </linearGradient>
    <linearGradient id="glow" x1="0" y1="0" x2="1" y2="0">
      <stop offset="0" stop-color="#00d492" stop-opacity=".55"/><stop offset="1" stop-color="#00d492" stop-opacity="0"/>
    </linearGradient>
  </defs>
  <rect width="1200" height="675" fill="url(#bg)"/>
  <rect x="0" y="0" width="1200" height="4" fill="url(#glow)"/>
  <!-- queue column -->
  <rect x="64" y="96" width="360" height="484" rx="12" fill="#1a1d25" stroke="#27272a"/>
  <rect x="88" y="124" width="312" height="52" rx="8" fill="#181b22" stroke="#00d492" stroke-opacity=".55"/>
  <rect x="104" y="140" width="8" height="20" rx="4" fill="#00d492"/>
  <rect x="124" y="140" width="150" height="8" rx="4" fill="#fafafa" fill-opacity=".85"/>
  <rect x="124" y="154" width="210" height="6" rx="3" fill="#7f7f88"/>
  <g fill="#181b22" stroke="#27272a">
    <rect x="88" y="188" width="312" height="52" rx="8"/><rect x="88" y="252" width="312" height="52" rx="8"/>
    <rect x="88" y="316" width="312" height="52" rx="8"/><rect x="88" y="380" width="312" height="52" rx="8"/>
    <rect x="88" y="444" width="312" height="52" rx="8"/>
  </g>
  <g fill="#7f7f88">
    <rect x="124" y="206" width="170" height="7" rx="3.5"/><rect x="124" y="222" width="120" height="6" rx="3"/>
    <rect x="124" y="270" width="150" height="7" rx="3.5"/><rect x="124" y="286" width="190" height="6" rx="3"/>
    <rect x="124" y="334" width="185" height="7" rx="3.5"/><rect x="124" y="350" width="100" height="6" rx="3"/>
    <rect x="124" y="398" width="140" height="7" rx="3.5"/><rect x="124" y="414" width="160" height="6" rx="3"/>
    <rect x="124" y="462" width="165" height="7" rx="3.5"/><rect x="124" y="478" width="130" height="6" rx="3"/>
  </g>
  <g fill="none" stroke-width="3" stroke-linecap="round">
    <rect x="104" y="196" width="8" height="20" rx="4" fill="#eab308" stroke="none"/>
    <rect x="104" y="260" width="8" height="20" rx="4" fill="#eab308" stroke="none"/>
    <rect x="104" y="324" width="8" height="20" rx="4" fill="#0891b2" stroke="none"/>
    <rect x="104" y="388" width="8" height="20" rx="4" fill="#ef4444" stroke="none"/>
    <rect x="104" y="452" width="8" height="20" rx="4" fill="#7f7f88" stroke="none"/>
  </g>
  <!-- decision pane -->
  <rect x="456" y="96" width="680" height="484" rx="12" fill="#1a1d25" stroke="#27272a"/>
  <rect x="488" y="128" width="300" height="12" rx="6" fill="#fafafa" fill-opacity=".9"/>
  <rect x="488" y="156" width="420" height="8" rx="4" fill="#7f7f88"/>
  <g fill="#181b22" stroke="#27272a">
    <rect x="488" y="192" width="616" height="112" rx="10"/>
    <rect x="488" y="320" width="616" height="112" rx="10"/>
  </g>
  <g fill="#7f7f88">
    <rect x="512" y="216" width="180" height="8" rx="4"/><rect x="512" y="236" width="520" height="6" rx="3"/>
    <rect x="512" y="252" width="470" height="6" rx="3"/><rect x="512" y="268" width="380" height="6" rx="3"/>
    <rect x="512" y="344" width="150" height="8" rx="4"/><rect x="512" y="364" width="540" height="6" rx="3"/>
    <rect x="512" y="380" width="440" height="6" rx="3"/><rect x="512" y="396" width="500" height="6" rx="3"/>
  </g>
  <rect x="488" y="192" width="4" height="112" rx="2" fill="#22c55e"/>
  <rect x="488" y="320" width="4" height="112" rx="2" fill="#eab308"/>
  <!-- sticky action bar -->
  <rect x="456" y="500" width="680" height="80" rx="12" fill="#181b22" stroke="#27272a"/>
  <rect x="488" y="524" width="150" height="32" rx="8" fill="#00d492"/>
  <rect x="520" y="536" width="86" height="8" rx="4" fill="#12141a"/>
  <rect x="656" y="524" width="190" height="32" rx="8" fill="#1a1d25" stroke="#3f3f46"/>
  <rect x="684" y="536" width="134" height="8" rx="4" fill="#e4e4e7"/>
  <rect x="960" y="536" width="144" height="8" rx="4" fill="#7f7f88"/>
  <!-- five phase lanes as a footer signature -->
  <g stroke-linecap="round" stroke-width="6">
    <path d="M64 624h190" stroke="#00d492" stroke-opacity=".85"/>
    <path d="M274 624h190" stroke="#00d492" stroke-opacity=".65"/>
    <path d="M484 624h190" stroke="#00d492" stroke-opacity=".5"/>
    <path d="M694 624h190" stroke="#00d492" stroke-opacity=".35"/>
    <path d="M904 624h232" stroke="#00d492" stroke-opacity=".2"/>
  </g>
</svg>
